<svg xmlns="http://www.w3.org/2000/svg" viewBox="0 0 32 12">
  <rect width="32" height="12" fill="#88CCE8"/>
  <g fill="white" opacity="0.9">
    <polygon points="4,2 4.4,3.2 5.6,3.2 4.6,3.9 5,5.1 4,4.4 3,5.1 3.4,3.9 2.4,3.2 3.6,3.2" transform="scale(0.6)"/>
    <polygon points="8,2 8.4,3.2 9.6,3.2 8.6,3.9 9,5.1 8,4.4 7,5.1 7.4,3.9 6.4,3.2 7.6,3.2" transform="scale(0.6)"/>
    <polygon points="16,2 16.4,3.2 17.6,3.2 16.6,3.9 17,5.1 16,4.4 15,5.1 15.4,3.9 14.4,3.2 15.6,3.2" transform="scale(0.6)"/>
  </g>
  <g fill="white" opacity="0.85">
    <circle cx="5" cy="3" r="0.8"/>
    <circle cx="9" cy="3" r="0.8"/>
    <circle cx="13" cy="3" r="0.8"/>
    <circle cx="17" cy="3" r="0.8"/>
    <circle cx="21" cy="3" r="0.8"/>
    <circle cx="25" cy="3" r="0.8"/>
    <circle cx="7" cy="6" r="0.8"/>
    <circle cx="11" cy="6" r="0.8"/>
    <circle cx="15" cy="6" r="0.8"/>
    <circle cx="19" cy="6" r="0.8"/>
    <circle cx="23" cy="6" r="0.8"/>
    <circle cx="9" cy="9" r="0.8"/>
    <circle cx="16" cy="9" r="0.8"/>
  </g>
</svg>
